<svg xmlns="http://www.w3.org/2000/svg" viewBox="0 0 900 600">
  <defs>
    <linearGradient id="bg" x1="0%" y1="0%" x2="100%" y2="100%">
      <stop offset="0%" style="stop-color:#1a1a2e"/>
      <stop offset="100%" style="stop-color:#16213e"/>
    </linearGradient>
  </defs>
  
  <!-- Background -->
  <rect width="900" height="600" fill="url(#bg)"/>
  
  <!-- Header -->
  <rect x="0" y="0" width="900" height="60" fill="#16213e"/>
  <text x="30" y="38" fill="#eaeaea" font-family="system-ui, -apple-system, sans-serif" font-size="20" font-weight="600">IBKR Auto-Invest</text>
  
  <!-- Gateway Status Badge -->
  <rect x="750" y="18" width="120" height="28" rx="4" fill="#0f3460"/>
  <circle cx="770" cy="32" r="6" fill="#22c55e"/>
  <text x="785" y="37" fill="#eaeaea" font-family="system-ui" font-size="12">Running</text>
  
  <!-- Sidebar -->
  <rect x="0" y="60" width="280" height="540" fill="#16213e"/>
  
  <!-- Gateway Panel -->
  <rect x="15" y="75" width="250" height="140" rx="8" fill="#0f3460"/>
  <text x="30" y="100" fill="#eaeaea" font-family="system-ui" font-size="14" font-weight="600">IBKR Gateway</text>
  <rect x="165" y="85" width="85" height="22" rx="4" fill="#22c55e"/>
  <text x="180" y="101" fill="white" font-family="system-ui" font-size="11">Running</text>
  <text x="30" y="130" fill="#a0a0a0" font-family="system-ui" font-size="12">Authentication:</text>
  <text x="140" y="130" fill="#22c55e" font-family="system-ui" font-size="12">✓ Connected</text>
  <rect x="30" y="150" width="100" height="32" rx="4" fill="#e94560"/>
  <text x="45" y="171" fill="white" font-family="system-ui" font-size="12">Login to IBKR</text>
  <rect x="140" y="150" width="105" height="32" rx="4" fill="#2d4a6f"/>
  <text x="155" y="171" fill="#eaeaea" font-family="system-ui" font-size="12">Stop Gateway</text>
  
  <!-- Account Selector -->
  <rect x="15" y="230" width="250" height="80" rx="8" fill="#0f3460"/>
  <text x="30" y="255" fill="#eaeaea" font-family="system-ui" font-size="14" font-weight="600">Account</text>
  <rect x="30" y="265" width="220" height="32" rx="4" fill="#1a1a2e" stroke="#2d4a6f"/>
  <text x="45" y="286" fill="#eaeaea" font-family="system-ui" font-size="12">DU1234567 (Paper Trading)</text>
  
  <!-- Allocation Editor -->
  <rect x="15" y="325" width="250" height="260" rx="8" fill="#0f3460"/>
  <text x="30" y="350" fill="#eaeaea" font-family="system-ui" font-size="14" font-weight="600">Target Allocation</text>
  
  <!-- Allocation rows -->
  <rect x="30" y="365" width="80" height="28" rx="4" fill="#1a1a2e" stroke="#2d4a6f"/>
  <text x="45" y="384" fill="#eaeaea" font-family="system-ui" font-size="12">VOO</text>
  <rect x="120" y="365" width="60" height="28" rx="4" fill="#1a1a2e" stroke="#2d4a6f"/>
  <text x="135" y="384" fill="#eaeaea" font-family="system-ui" font-size="12">50%</text>
  <rect x="190" y="365" width="28" height="28" rx="4" fill="#ef4444"/>
  <text x="199" y="384" fill="white" font-family="system-ui" font-size="14">×</text>
  
  <rect x="30" y="400" width="80" height="28" rx="4" fill="#1a1a2e" stroke="#2d4a6f"/>
  <text x="45" y="419" fill="#eaeaea" font-family="system-ui" font-size="12">QQQ</text>
  <rect x="120" y="400" width="60" height="28" rx="4" fill="#1a1a2e" stroke="#2d4a6f"/>
  <text x="135" y="419" fill="#eaeaea" font-family="system-ui" font-size="12">30%</text>
  <rect x="190" y="400" width="28" height="28" rx="4" fill="#ef4444"/>
  <text x="199" y="419" fill="white" font-family="system-ui" font-size="14">×</text>
  
  <rect x="30" y="435" width="80" height="28" rx="4" fill="#1a1a2e" stroke="#2d4a6f"/>
  <text x="45" y="454" fill="#eaeaea" font-family="system-ui" font-size="12">VTI</text>
  <rect x="120" y="435" width="60" height="28" rx="4" fill="#1a1a2e" stroke="#2d4a6f"/>
  <text x="135" y="454" fill="#eaeaea" font-family="system-ui" font-size="12">20%</text>
  <rect x="190" y="435" width="28" height="28" rx="4" fill="#ef4444"/>
  <text x="199" y="454" fill="white" font-family="system-ui" font-size="14">×</text>
  
  <text x="30" y="490" fill="#a0a0a0" font-family="system-ui" font-size="12">Total: 100%</text>
  <rect x="30" y="505" width="100" height="30" rx="4" fill="#22c55e"/>
  <text x="50" y="525" fill="white" font-family="system-ui" font-size="12">Save</text>
  
  <!-- Main Content - Welcome -->
  <rect x="295" y="75" width="590" height="510" rx="8" fill="#0f3460"/>
  <text x="320" y="120" fill="#eaeaea" font-family="system-ui" font-size="24" font-weight="600">Welcome to IBKR Auto-Invest</text>
  <text x="320" y="160" fill="#a0a0a0" font-family="system-ui" font-size="14">This app helps you automatically invest your cash into a target</text>
  <text x="320" y="180" fill="#a0a0a0" font-family="system-ui" font-size="14">portfolio allocation.</text>
  
  <!-- Steps -->
  <circle cx="335" cy="230" r="15" fill="#e94560"/>
  <text x="331" y="235" fill="white" font-family="system-ui" font-size="12">1</text>
  <text x="360" y="235" fill="#eaeaea" font-family="system-ui" font-size="14">Start the IBKR Gateway (if not already running)</text>
  
  <circle cx="335" cy="275" r="15" fill="#e94560"/>
  <text x="331" y="280" fill="white" font-family="system-ui" font-size="12">2</text>
  <text x="360" y="280" fill="#eaeaea" font-family="system-ui" font-size="14">Login to your IBKR account via the browser</text>
  
  <circle cx="335" cy="320" r="15" fill="#e94560"/>
  <text x="331" y="325" fill="white" font-family="system-ui" font-size="12">3</text>
  <text x="360" y="325" fill="#eaeaea" font-family="system-ui" font-size="14">Set your target allocation percentages for each stock/ETF</text>
  
  <circle cx="335" cy="365" r="15" fill="#e94560"/>
  <text x="330" y="370" fill="white" font-family="system-ui" font-size="12">4</text>
  <text x="360" y="370" fill="#eaeaea" font-family="system-ui" font-size="14">Click "Auto-Invest" to distribute cash according to your allocation</text>
  
  <!-- Tip box -->
  <rect x="320" y="420" width="540" height="60" rx="8" fill="#1a1a2e" stroke="#f59e0b" stroke-width="2"/>
  <text x="340" y="450" fill="#f59e0b" font-family="system-ui" font-size="14">💡 Tip: Test with a paper trading account first! Use your paper</text>
  <text x="340" y="468" fill="#f59e0b" font-family="system-ui" font-size="14">trading username when logging in.</text>
</svg>
