<svg xmlns="http://www.w3.org/2000/svg" viewBox="0 0 900 600">
  <defs>
    <linearGradient id="bg2" x1="0%" y1="0%" x2="100%" y2="100%">
      <stop offset="0%" style="stop-color:#1a1a2e"/>
      <stop offset="100%" style="stop-color:#16213e"/>
    </linearGradient>
  </defs>
  
  <!-- Background -->
  <rect width="900" height="600" fill="url(#bg2)"/>
  
  <!-- Header -->
  <rect x="0" y="0" width="900" height="60" fill="#16213e"/>
  <text x="30" y="38" fill="#eaeaea" font-family="system-ui, -apple-system, sans-serif" font-size="20" font-weight="600">IBKR Auto-Invest</text>
  <rect x="750" y="18" width="120" height="28" rx="4" fill="#0f3460"/>
  <circle cx="770" cy="32" r="6" fill="#22c55e"/>
  <text x="785" y="37" fill="#eaeaea" font-family="system-ui" font-size="12">Running</text>
  
  <!-- Sidebar (minimized for this view) -->
  <rect x="0" y="60" width="280" height="540" fill="#16213e"/>
  <rect x="15" y="75" width="250" height="80" rx="8" fill="#0f3460"/>
  <text x="30" y="100" fill="#eaeaea" font-family="system-ui" font-size="14" font-weight="600">Account</text>
  <rect x="30" y="110" width="220" height="32" rx="4" fill="#1a1a2e" stroke="#2d4a6f"/>
  <text x="45" y="131" fill="#eaeaea" font-family="system-ui" font-size="12">DU1234567</text>
  
  <!-- Main Content - Portfolio View -->
  <rect x="295" y="75" width="590" height="510" rx="8" fill="#0f3460"/>
  
  <!-- Portfolio Header -->
  <text x="320" y="105" fill="#eaeaea" font-family="system-ui" font-size="18" font-weight="600">Portfolio</text>
  <rect x="780" y="82" width="80" height="30" rx="4" fill="#2d4a6f"/>
  <text x="795" y="102" fill="#eaeaea" font-family="system-ui" font-size="12">Refresh</text>
  
  <!-- Balance Cards -->
  <rect x="320" y="125" width="130" height="70" rx="6" fill="#1a1a2e"/>
  <text x="335" y="148" fill="#a0a0a0" font-family="system-ui" font-size="11">Total Value</text>
  <text x="335" y="175" fill="#eaeaea" font-family="system-ui" font-size="18" font-weight="600">$52,847.23</text>
  
  <rect x="460" y="125" width="130" height="70" rx="6" fill="#1a1a2e"/>
  <text x="475" y="148" fill="#a0a0a0" font-family="system-ui" font-size="11">Cash (USD)</text>
  <text x="475" y="175" fill="#eaeaea" font-family="system-ui" font-size="18" font-weight="600">$3,245.18</text>
  
  <rect x="600" y="125" width="130" height="70" rx="6" fill="#1a1a2e"/>
  <text x="615" y="148" fill="#a0a0a0" font-family="system-ui" font-size="11">Cash (ILS)</text>
  <text x="615" y="175" fill="#eaeaea" font-family="system-ui" font-size="18" font-weight="600">₪5,420.00</text>
  <text x="615" y="188" fill="#a0a0a0" font-family="system-ui" font-size="10">≈ $1,505.56</text>
  
  <rect x="740" y="125" width="120" height="70" rx="6" fill="#1a1a2e"/>
  <text x="755" y="148" fill="#a0a0a0" font-family="system-ui" font-size="11">ILS/USD Rate</text>
  <text x="755" y="175" fill="#eaeaea" font-family="system-ui" font-size="18" font-weight="600">0.2778</text>
  
  <!-- Positions Table -->
  <rect x="320" y="215" width="540" height="35" rx="4" fill="#16213e"/>
  <text x="340" y="238" fill="#a0a0a0" font-family="system-ui" font-size="12" font-weight="600">Symbol</text>
  <text x="430" y="238" fill="#a0a0a0" font-family="system-ui" font-size="12" font-weight="600">Shares</text>
  <text x="510" y="238" fill="#a0a0a0" font-family="system-ui" font-size="12" font-weight="600">Market Value</text>
  <text x="620" y="238" fill="#a0a0a0" font-family="system-ui" font-size="12" font-weight="600">Avg Cost</text>
  <text x="710" y="238" fill="#a0a0a0" font-family="system-ui" font-size="12" font-weight="600">P&L</text>
  <text x="785" y="238" fill="#a0a0a0" font-family="system-ui" font-size="12" font-weight="600">%</text>
  
  <!-- Position rows -->
  <rect x="320" y="255" width="540" height="40" fill="transparent"/>
  <text x="340" y="280" fill="#e94560" font-family="system-ui" font-size="13" font-weight="600">VOO</text>
  <text x="440" y="280" fill="#eaeaea" font-family="system-ui" font-size="13">52</text>
  <text x="510" y="280" fill="#eaeaea" font-family="system-ui" font-size="13">$24,128.40</text>
  <text x="620" y="280" fill="#eaeaea" font-family="system-ui" font-size="13">$421.50</text>
  <text x="710" y="280" fill="#22c55e" font-family="system-ui" font-size="13">+$2,210.40</text>
  <text x="795" y="280" fill="#eaeaea" font-family="system-ui" font-size="13">45.7%</text>
  
  <line x1="320" y1="295" x2="860" y2="295" stroke="#2d4a6f" stroke-width="1"/>
  
  <rect x="320" y="300" width="540" height="40" fill="transparent"/>
  <text x="340" y="325" fill="#e94560" font-family="system-ui" font-size="13" font-weight="600">QQQ</text>
  <text x="440" y="325" fill="#eaeaea" font-family="system-ui" font-size="13">35</text>
  <text x="510" y="325" fill="#eaeaea" font-family="system-ui" font-size="13">$14,847.00</text>
  <text x="620" y="325" fill="#eaeaea" font-family="system-ui" font-size="13">$398.20</text>
  <text x="710" y="325" fill="#22c55e" font-family="system-ui" font-size="13">+$910.00</text>
  <text x="795" y="325" fill="#eaeaea" font-family="system-ui" font-size="13">28.1%</text>
  
  <line x1="320" y1="340" x2="860" y2="340" stroke="#2d4a6f" stroke-width="1"/>
  
  <rect x="320" y="345" width="540" height="40" fill="transparent"/>
  <text x="340" y="370" fill="#e94560" font-family="system-ui" font-size="13" font-weight="600">VTI</text>
  <text x="440" y="370" fill="#eaeaea" font-family="system-ui" font-size="13">40</text>
  <text x="510" y="370" fill="#eaeaea" font-family="system-ui" font-size="13">$9,120.00</text>
  <text x="620" y="370" fill="#eaeaea" font-family="system-ui" font-size="13">$224.80</text>
  <text x="710" y="370" fill="#ef4444" font-family="system-ui" font-size="13">-$72.00</text>
  <text x="795" y="370" fill="#eaeaea" font-family="system-ui" font-size="13">17.3%</text>
  
  <line x1="320" y1="385" x2="860" y2="385" stroke="#2d4a6f" stroke-width="1"/>
  
  <!-- Auto Invest Section -->
  <rect x="320" y="410" width="540" height="160" rx="6" fill="#1a1a2e"/>
  <text x="340" y="440" fill="#eaeaea" font-family="system-ui" font-size="16" font-weight="600">Auto-Invest</text>
  <text x="340" y="470" fill="#a0a0a0" font-family="system-ui" font-size="13">Auto-invest will analyze your current portfolio, convert ILS to USD if</text>
  <text x="340" y="490" fill="#a0a0a0" font-family="system-ui" font-size="13">needed, and distribute available cash to bring your positions closer</text>
  <text x="340" y="510" fill="#a0a0a0" font-family="system-ui" font-size="13">to target allocation.</text>
  
  <rect x="340" y="530" width="180" height="35" rx="4" fill="#e94560"/>
  <text x="375" y="553" fill="white" font-family="system-ui" font-size="14" font-weight="500">Create Investment Plan</text>
</svg>
