<svg xmlns="http://www.w3.org/2000/svg" viewBox="0 0 900 550">
  <defs>
    <linearGradient id="bg4" x1="0%" y1="0%" x2="100%" y2="100%">
      <stop offset="0%" style="stop-color:#1a1a2e"/>
      <stop offset="100%" style="stop-color:#16213e"/>
    </linearGradient>
  </defs>
  
  <!-- Background -->
  <rect width="900" height="550" fill="url(#bg4)"/>
  
  <!-- Header -->
  <rect x="0" y="0" width="900" height="60" fill="#16213e"/>
  <text x="30" y="38" fill="#eaeaea" font-family="system-ui, -apple-system, sans-serif" font-size="20" font-weight="600">IBKR Auto-Invest</text>
  <rect x="750" y="18" width="120" height="28" rx="4" fill="#0f3460"/>
  <circle cx="770" cy="32" r="6" fill="#22c55e"/>
  <text x="785" y="37" fill="#eaeaea" font-family="system-ui" font-size="12">Running</text>
  
  <!-- Sidebar -->
  <rect x="0" y="60" width="280" height="490" fill="#16213e"/>
  
  <!-- Main Content - Execution Result -->
  <rect x="295" y="75" width="590" height="460" rx="8" fill="#0f3460"/>
  
  <!-- Success Header -->
  <rect x="320" y="95" width="540" height="60" rx="8" fill="#22c55e" fill-opacity="0.15" stroke="#22c55e" stroke-width="2"/>
  <text x="340" y="125" fill="#22c55e" font-family="system-ui" font-size="24">✓</text>
  <text x="375" y="125" fill="#22c55e" font-family="system-ui" font-size="18" font-weight="600">Investment Complete!</text>
  <text x="375" y="145" fill="#22c55e" font-family="system-ui" font-size="13">3 orders placed successfully. Total invested: $4,733.10</text>
  
  <!-- Currency Conversion -->
  <rect x="320" y="175" width="540" height="50" rx="6" fill="#1a1a2e"/>
  <text x="340" y="200" fill="#f59e0b" font-family="system-ui" font-size="13">💱 Currency Conversion</text>
  <text x="340" y="218" fill="#a0a0a0" font-family="system-ui" font-size="12">Converted ₪5,420.00 to $1,505.56 USD</text>
  
  <!-- Results Table -->
  <rect x="320" y="245" width="540" height="35" rx="4" fill="#16213e"/>
  <text x="340" y="268" fill="#a0a0a0" font-family="system-ui" font-size="12" font-weight="600">Symbol</text>
  <text x="440" y="268" fill="#a0a0a0" font-family="system-ui" font-size="12" font-weight="600">Shares</text>
  <text x="520" y="268" fill="#a0a0a0" font-family="system-ui" font-size="12" font-weight="600">Status</text>
  <text x="620" y="268" fill="#a0a0a0" font-family="system-ui" font-size="12" font-weight="600">Order ID</text>
  
  <!-- Result rows -->
  <rect x="320" y="285" width="540" height="45" fill="transparent"/>
  <text x="340" y="313" fill="#e94560" font-family="system-ui" font-size="14" font-weight="600">VOO</text>
  <text x="450" y="313" fill="#eaeaea" font-family="system-ui" font-size="13">5</text>
  <rect x="520" y="298" width="70" height="22" rx="4" fill="#22c55e"/>
  <text x="535" y="314" fill="white" font-family="system-ui" font-size="11">Filled</text>
  <text x="620" y="313" fill="#a0a0a0" font-family="system-ui" font-size="12">#847291034</text>
  
  <line x1="320" y1="330" x2="860" y2="330" stroke="#2d4a6f" stroke-width="1"/>
  
  <rect x="320" y="335" width="540" height="45" fill="transparent"/>
  <text x="340" y="363" fill="#e94560" font-family="system-ui" font-size="14" font-weight="600">QQQ</text>
  <text x="450" y="363" fill="#eaeaea" font-family="system-ui" font-size="13">3</text>
  <rect x="520" y="348" width="70" height="22" rx="4" fill="#22c55e"/>
  <text x="535" y="364" fill="white" font-family="system-ui" font-size="11">Filled</text>
  <text x="620" y="363" fill="#a0a0a0" font-family="system-ui" font-size="12">#847291035</text>
  
  <line x1="320" y1="380" x2="860" y2="380" stroke="#2d4a6f" stroke-width="1"/>
  
  <rect x="320" y="385" width="540" height="45" fill="transparent"/>
  <text x="340" y="413" fill="#e94560" font-family="system-ui" font-size="14" font-weight="600">VTI</text>
  <text x="450" y="413" fill="#eaeaea" font-family="system-ui" font-size="13">5</text>
  <rect x="520" y="398" width="70" height="22" rx="4" fill="#22c55e"/>
  <text x="535" y="414" fill="white" font-family="system-ui" font-size="11">Filled</text>
  <text x="620" y="413" fill="#a0a0a0" font-family="system-ui" font-size="12">#847291036</text>
  
  <!-- Action Buttons -->
  <rect x="320" y="455" width="160" height="40" rx="4" fill="#e94560"/>
  <text x="350" y="481" fill="white" font-family="system-ui" font-size="14" font-weight="500">View Portfolio</text>
  
  <rect x="500" y="455" width="180" height="40" rx="4" fill="#2d4a6f"/>
  <text x="525" y="481" fill="#eaeaea" font-family="system-ui" font-size="14">Create New Plan</text>
</svg>
